<svg width="42" height="42" viewBox="0 0 42 42" fill="none" xmlns="http://www.w3.org/2000/svg">
<path d="M36.75 2.625C38.202 2.625 39.375 3.80051 39.375 5.25C39.375 6.69949 38.202 7.875 36.75 7.875H6.5625C5.83734 7.875 5.25 8.46562 5.25 9.1875C5.25 9.90938 5.83734 10.5 6.5625 10.5H36.75C39.6457 10.5 42 12.8543 42 15.75V34.125C42 37.0207 39.6457 39.375 36.75 39.375H5.25C2.3502 39.375 0 37.0207 0 34.125V7.875C0 4.9752 2.3502 2.625 5.25 2.625H36.75ZM34.125 27.5625C35.577 27.5625 36.75 26.3895 36.75 24.9375C36.75 23.4855 35.577 22.3125 34.125 22.3125C32.673 22.3125 31.5 23.4855 31.5 24.9375C31.5 26.3895 32.673 27.5625 34.125 27.5625Z" fill="#2B607D"/>
</svg>
