<svg width="41" height="37" viewBox="0 0 41 37" fill="none" xmlns="http://www.w3.org/2000/svg">
<g clip-path="url(#clip0_16_43)">
<path d="M40.9858 18.4639C40.9858 19.7646 39.9181 20.7836 38.708 20.7836H36.4302L36.48 32.3533C36.48 32.5557 36.4658 32.7436 36.4444 32.9387V34.1094C36.4444 35.7064 35.1703 37 33.5972 37H32.4583C32.38 37 32.3017 36.935 32.2234 36.9928C32.1238 36.935 32.0241 37 31.9245 37H27.9028C26.3297 37 25.0556 35.7064 25.0556 34.1094V27.75C25.0556 26.4709 24.0377 25.4375 22.7778 25.4375H18.2222C16.9623 25.4375 15.9444 26.4709 15.9444 27.75V34.1094C15.9444 35.7064 14.6703 37 13.0972 37H9.11823C9.01146 37 8.90469 36.9928 8.79792 36.9855C8.7125 36.9928 8.62708 37 8.54167 37H7.40278C5.8304 37 4.55556 35.7064 4.55556 34.1094V26.0156C4.55556 25.9506 4.55769 25.8783 4.56196 25.8133V20.7836H2.28134C0.997951 20.7836 0 19.7646 0 18.4639C0 17.8135 0.213826 17.2354 0.712517 16.7295L18.9625 0.579281C19.4608 0.0724101 20.0302 0 20.5285 0C21.0267 0 21.5962 0.14482 22.0304 0.506871L40.2028 16.7295C40.7722 17.2354 41.0641 17.8135 40.9858 18.4639Z" fill="white"/>
</g>
<defs>
<clipPath id="clip0_16_43">
<rect width="41" height="37" fill="white"/>
</clipPath>
</defs>
</svg>
